<mxfile host="drawio-plugin" modified="2022-04-01T12:08:17.897Z" agent="5.0 (Windows NT 6.2; Win64; x64) AppleWebKit/537.36 (KHTML, like Gecko) Chrome/89.0.4389.114 Safari/537.36" etag="HBkf9Vabi4kM14doybwb" version="15.5.4" type="embed"><diagram id="dQoQJu0nrUtKwQsVPwIs" name="Page-1"><mxGraphModel dx="1423" dy="894" grid="1" gridSize="10" guides="1" tooltips="1" connect="1" arrows="1" fold="1" page="1" pageScale="1" pageWidth="827" pageHeight="1169" math="0" shadow="0"><root><mxCell id="0"/><mxCell id="1" parent="0"/><mxCell id="Ahvbp8zIc1aX7tHA2-Ch-9" style="rounded=0;orthogonalLoop=1;jettySize=auto;html=1;exitX=1;exitY=0.3333333333333333;exitDx=0;exitDy=0;exitPerimeter=0;fontColor=#000000;endArrow=none;endFill=0;" parent="1" source="Ahvbp8zIc1aX7tHA2-Ch-1" target="Ahvbp8zIc1aX7tHA2-Ch-5" edge="1"><mxGeometry relative="1" as="geometry"/></mxCell><mxCell id="Ahvbp8zIc1aX7tHA2-Ch-10" style="edgeStyle=none;rounded=0;orthogonalLoop=1;jettySize=auto;html=1;exitX=1;exitY=0.3333333333333333;exitDx=0;exitDy=0;exitPerimeter=0;fontColor=#000000;endArrow=none;endFill=0;" parent="1" source="Ahvbp8zIc1aX7tHA2-Ch-1" target="Ahvbp8zIc1aX7tHA2-Ch-7" edge="1"><mxGeometry relative="1" as="geometry"/></mxCell><mxCell id="Ahvbp8zIc1aX7tHA2-Ch-12" style="edgeStyle=none;rounded=0;orthogonalLoop=1;jettySize=auto;html=1;exitX=1;exitY=0.3333333333333333;exitDx=0;exitDy=0;exitPerimeter=0;fontColor=#000000;endArrow=none;endFill=0;" parent="1" source="Ahvbp8zIc1aX7tHA2-Ch-1" target="Ahvbp8zIc1aX7tHA2-Ch-6" edge="1"><mxGeometry relative="1" as="geometry"/></mxCell><mxCell id="Ahvbp8zIc1aX7tHA2-Ch-13" style="edgeStyle=none;rounded=0;orthogonalLoop=1;jettySize=auto;html=1;exitX=1;exitY=0.3333333333333333;exitDx=0;exitDy=0;exitPerimeter=0;fontColor=#000000;endArrow=none;endFill=0;" parent="1" source="Ahvbp8zIc1aX7tHA2-Ch-1" target="Ahvbp8zIc1aX7tHA2-Ch-8" edge="1"><mxGeometry relative="1" as="geometry"/></mxCell><mxCell id="Ahvbp8zIc1aX7tHA2-Ch-1" value="Visitör" style="shape=umlActor;verticalLabelPosition=bottom;verticalAlign=top;html=1;outlineConnect=0;" parent="1" vertex="1"><mxGeometry x="130" y="390" width="30" height="60" as="geometry"/></mxCell><mxCell id="Ahvbp8zIc1aX7tHA2-Ch-4" value="Cocktailbar application" style="swimlane;" parent="1" vertex="1"><mxGeometry x="280" y="160" width="240" height="520" as="geometry"/></mxCell><mxCell id="Ahvbp8zIc1aX7tHA2-Ch-5" value="Register" style="ellipse;whiteSpace=wrap;html=1;" parent="Ahvbp8zIc1aX7tHA2-Ch-4" vertex="1"><mxGeometry x="10" y="30" width="100" height="50" as="geometry"/></mxCell><mxCell id="Ahvbp8zIc1aX7tHA2-Ch-6" value="View recipes" style="ellipse;whiteSpace=wrap;html=1;" parent="Ahvbp8zIc1aX7tHA2-Ch-4" vertex="1"><mxGeometry x="60" y="330" width="100" height="50" as="geometry"/></mxCell><mxCell id="Ahvbp8zIc1aX7tHA2-Ch-7" value="Search recipes" style="ellipse;whiteSpace=wrap;html=1;" parent="Ahvbp8zIc1aX7tHA2-Ch-4" vertex="1"><mxGeometry x="60" y="450" width="100" height="50" as="geometry"/></mxCell><mxCell id="Ahvbp8zIc1aX7tHA2-Ch-8" value="Recommended recipes" style="ellipse;whiteSpace=wrap;html=1;" parent="Ahvbp8zIc1aX7tHA2-Ch-4" vertex="1"><mxGeometry x="60" y="390" width="100" height="50" as="geometry"/></mxCell><mxCell id="Ahvbp8zIc1aX7tHA2-Ch-14" value="Login" style="ellipse;whiteSpace=wrap;html=1;" parent="Ahvbp8zIc1aX7tHA2-Ch-4" vertex="1"><mxGeometry x="120" y="30" width="100" height="50" as="geometry"/></mxCell><mxCell id="Ahvbp8zIc1aX7tHA2-Ch-15" value="Logout" style="ellipse;whiteSpace=wrap;html=1;" parent="Ahvbp8zIc1aX7tHA2-Ch-4" vertex="1"><mxGeometry x="120" y="90" width="100" height="50" as="geometry"/></mxCell><mxCell id="Ahvbp8zIc1aX7tHA2-Ch-16" value="Manage account" style="ellipse;whiteSpace=wrap;html=1;" parent="Ahvbp8zIc1aX7tHA2-Ch-4" vertex="1"><mxGeometry x="120" y="150" width="100" height="50" as="geometry"/></mxCell><mxCell id="Ahvbp8zIc1aX7tHA2-Ch-17" value="Delete account" style="ellipse;whiteSpace=wrap;html=1;" parent="Ahvbp8zIc1aX7tHA2-Ch-4" vertex="1"><mxGeometry x="120" y="210" width="100" height="50" as="geometry"/></mxCell><mxCell id="Ahvbp8zIc1aX7tHA2-Ch-18" value="Upload recipe" style="ellipse;whiteSpace=wrap;html=1;" parent="Ahvbp8zIc1aX7tHA2-Ch-4" vertex="1"><mxGeometry x="120" y="270" width="100" height="50" as="geometry"/></mxCell><mxCell id="Ahvbp8zIc1aX7tHA2-Ch-24" style="edgeStyle=none;rounded=0;orthogonalLoop=1;jettySize=auto;html=1;exitX=0;exitY=0.3333333333333333;exitDx=0;exitDy=0;exitPerimeter=0;fontColor=#000000;endArrow=none;endFill=0;" parent="1" source="Ahvbp8zIc1aX7tHA2-Ch-21" target="Ahvbp8zIc1aX7tHA2-Ch-14" edge="1"><mxGeometry relative="1" as="geometry"/></mxCell><mxCell id="Ahvbp8zIc1aX7tHA2-Ch-25" style="edgeStyle=none;rounded=0;orthogonalLoop=1;jettySize=auto;html=1;exitX=0;exitY=0.3333333333333333;exitDx=0;exitDy=0;exitPerimeter=0;fontColor=#000000;endArrow=none;endFill=0;" parent="1" source="Ahvbp8zIc1aX7tHA2-Ch-21" target="Ahvbp8zIc1aX7tHA2-Ch-15" edge="1"><mxGeometry relative="1" as="geometry"/></mxCell><mxCell id="Ahvbp8zIc1aX7tHA2-Ch-26" style="edgeStyle=none;rounded=0;orthogonalLoop=1;jettySize=auto;html=1;exitX=0;exitY=0.3333333333333333;exitDx=0;exitDy=0;exitPerimeter=0;fontColor=#000000;endArrow=none;endFill=0;" parent="1" source="Ahvbp8zIc1aX7tHA2-Ch-21" target="Ahvbp8zIc1aX7tHA2-Ch-16" edge="1"><mxGeometry relative="1" as="geometry"/></mxCell><mxCell id="Ahvbp8zIc1aX7tHA2-Ch-28" style="edgeStyle=none;rounded=0;orthogonalLoop=1;jettySize=auto;html=1;exitX=0;exitY=0.3333333333333333;exitDx=0;exitDy=0;exitPerimeter=0;fontColor=#000000;endArrow=none;endFill=0;" parent="1" source="Ahvbp8zIc1aX7tHA2-Ch-21" target="Ahvbp8zIc1aX7tHA2-Ch-17" edge="1"><mxGeometry relative="1" as="geometry"/></mxCell><mxCell id="Ahvbp8zIc1aX7tHA2-Ch-29" style="edgeStyle=none;rounded=0;orthogonalLoop=1;jettySize=auto;html=1;exitX=0;exitY=0.3333333333333333;exitDx=0;exitDy=0;exitPerimeter=0;fontColor=#000000;endArrow=none;endFill=0;" parent="1" source="Ahvbp8zIc1aX7tHA2-Ch-21" target="Ahvbp8zIc1aX7tHA2-Ch-18" edge="1"><mxGeometry relative="1" as="geometry"/></mxCell><mxCell id="Ahvbp8zIc1aX7tHA2-Ch-30" style="edgeStyle=none;rounded=0;orthogonalLoop=1;jettySize=auto;html=1;exitX=0;exitY=0.3333333333333333;exitDx=0;exitDy=0;exitPerimeter=0;fontColor=#000000;endArrow=none;endFill=0;" parent="1" source="Ahvbp8zIc1aX7tHA2-Ch-21" target="Ahvbp8zIc1aX7tHA2-Ch-6" edge="1"><mxGeometry relative="1" as="geometry"/></mxCell><mxCell id="Ahvbp8zIc1aX7tHA2-Ch-31" style="edgeStyle=none;rounded=0;orthogonalLoop=1;jettySize=auto;html=1;exitX=0;exitY=0.3333333333333333;exitDx=0;exitDy=0;exitPerimeter=0;fontColor=#000000;endArrow=none;endFill=0;" parent="1" source="Ahvbp8zIc1aX7tHA2-Ch-21" target="Ahvbp8zIc1aX7tHA2-Ch-8" edge="1"><mxGeometry relative="1" as="geometry"/></mxCell><mxCell id="Ahvbp8zIc1aX7tHA2-Ch-32" style="edgeStyle=none;rounded=0;orthogonalLoop=1;jettySize=auto;html=1;exitX=0;exitY=0.3333333333333333;exitDx=0;exitDy=0;exitPerimeter=0;fontColor=#000000;endArrow=none;endFill=0;" parent="1" source="Ahvbp8zIc1aX7tHA2-Ch-21" target="Ahvbp8zIc1aX7tHA2-Ch-7" edge="1"><mxGeometry relative="1" as="geometry"/></mxCell><mxCell id="Ahvbp8zIc1aX7tHA2-Ch-21" value="Member" style="shape=umlActor;verticalLabelPosition=bottom;verticalAlign=top;html=1;outlineConnect=0;" parent="1" vertex="1"><mxGeometry x="640" y="390" width="30" height="60" as="geometry"/></mxCell></root></mxGraphModel></diagram></mxfile>